<svg xmlns="http://www.w3.org/2000/svg" width="14.6" height="17.804" viewBox="0 0 14.6 17.804">
  <path id="Icon_material-phonelink-setup" data-name="Icon material-phonelink-setup" d="M11.883,10.807V10l-.89-.647a.3.3,0,0,1-.081-.243l.809-1.376c.081-.081.162-.162.243-.081l1.052.324a3.28,3.28,0,0,1,.728-.4l.162-1.052c0-.081.081-.162.243-.162h1.619c.081,0,.162.081.243.162l.162,1.052a3.28,3.28,0,0,1,.728.4l1.052-.4a.3.3,0,0,1,.243.081L19,9.026c.081.081,0,.162-.081.243l-.89.647v.809l.89.647A.612.612,0,0,1,19,11.7L18.2,13.073c-.081.081-.162.162-.243.081L16.82,12.83a3.28,3.28,0,0,1-.728.4l-.162,1.052c.081.081-.081.162-.162.162H14.149c-.081,0-.162-.081-.243-.162l-.162-1.052a3.28,3.28,0,0,1-.728-.4l-1.052.4a.3.3,0,0,1-.243-.081l-.809-1.376c-.081-.081,0-.162.081-.243l.89-.728Zm3.075,1.214A1.619,1.619,0,1,0,13.34,10.4,1.623,1.623,0,0,0,14.958,12.021ZM6.056,1.5h8.093a1.623,1.623,0,0,1,1.619,1.619V5.546H14.149V3.928H6.056V16.876h8.093V15.258h1.619v2.428A1.623,1.623,0,0,1,14.149,19.3H6.056a1.623,1.623,0,0,1-1.619-1.619V3.119A1.623,1.623,0,0,1,6.056,1.5Z" transform="translate(-4.438 -1.5)" fill="#292d31"/>
</svg>
